# xmcd CD database file
#
# Track frame offsets:
#	150
#	21192
#	39620
#	60850
#	88557
#	106525
#	127117
#	149422
#	164987
#	185725
#	200107
#	213827
#	239712
#
# Disc length: 3467 seconds
#
# Revision: 3
# Processed by: cddbd v1.5.2PL0 Copyright (c) Steve Scherf et al.
# Submitted via: CDex 1.51
#
DISCID=c20d890d
DTITLE=葉蒨文 - 真心真意過一生
DYEAR=1992
DGENRE=國語歌
TTITLE0=曾經心疼
TTITLE1=因為寂寞
TTITLE2=With All My Heart
TTITLE3=不了情
TTITLE4=驛動的心
TTITLE5=真心真意過一生 (快樂隨風版)
TTITLE6=向傷心告別
TTITLE7=人間有情
TTITLE8=哭砂
TTITLE9=其實你不懂我的心
TTITLE10=Over The Rainbow
TTITLE11=真心真意過一生 (熱勁狂飆版)
TTITLE12=真心真意過一生 (瀟灑自在版)
EXTD=YEAR: 1992
EXTT0=
EXTT1=
EXTT2=
EXTT3=
EXTT4=
EXTT5=
EXTT6=
EXTT7=
EXTT8=
EXTT9=
EXTT10=
EXTT11=
EXTT12=
PLAYORDER=
